<mxfile host="app.diagrams.net" modified="2023-04-17T21:54:09.610Z" agent="Mozilla/5.0 (Windows NT 10.0; Win64; x64) AppleWebKit/537.36 (KHTML, like Gecko) Chrome/111.0.0.0 Safari/537.36" etag="kyXKdCBlzDR9fip6-9Hx" version="21.1.5" type="device">
  <diagram name="Page-1" id="kiwM7txwd_Dw_TywOZwJ">
    <mxGraphModel dx="2514" dy="948" grid="1" gridSize="10" guides="1" tooltips="1" connect="1" arrows="1" fold="1" page="1" pageScale="1" pageWidth="827" pageHeight="1169" math="0" shadow="0">
      <root>
        <mxCell id="0" />
        <mxCell id="1" parent="0" />
        <mxCell id="tH5XbD6hmx5Op2JInt6V-18" value="" style="ellipse;shape=cloud;whiteSpace=wrap;html=1;" vertex="1" parent="1">
          <mxGeometry x="-640" y="70" width="870" height="640" as="geometry" />
        </mxCell>
        <mxCell id="tH5XbD6hmx5Op2JInt6V-1" value="Node Object" style="rounded=0;whiteSpace=wrap;html=1;" vertex="1" parent="1">
          <mxGeometry x="414" y="80" width="120" height="60" as="geometry" />
        </mxCell>
        <mxCell id="tH5XbD6hmx5Op2JInt6V-2" value="Node syncs with NTP&amp;nbsp;" style="rounded=0;whiteSpace=wrap;html=1;" vertex="1" parent="1">
          <mxGeometry x="604" y="200" width="120" height="60" as="geometry" />
        </mxCell>
        <mxCell id="tH5XbD6hmx5Op2JInt6V-6" value="Start lifespan counter" style="rounded=0;whiteSpace=wrap;html=1;" vertex="1" parent="1">
          <mxGeometry x="604" y="300" width="120" height="60" as="geometry" />
        </mxCell>
        <mxCell id="tH5XbD6hmx5Op2JInt6V-7" value="" style="endArrow=classic;html=1;rounded=0;exitX=0.5;exitY=1;exitDx=0;exitDy=0;entryX=0.5;entryY=0;entryDx=0;entryDy=0;" edge="1" parent="1" source="tH5XbD6hmx5Op2JInt6V-2" target="tH5XbD6hmx5Op2JInt6V-6">
          <mxGeometry width="50" height="50" relative="1" as="geometry">
            <mxPoint x="570" y="420" as="sourcePoint" />
            <mxPoint x="620" y="370" as="targetPoint" />
          </mxGeometry>
        </mxCell>
        <mxCell id="tH5XbD6hmx5Op2JInt6V-8" value="" style="endArrow=classic;html=1;rounded=0;exitX=0.5;exitY=1;exitDx=0;exitDy=0;entryX=0.5;entryY=0;entryDx=0;entryDy=0;" edge="1" parent="1" source="tH5XbD6hmx5Op2JInt6V-1" target="tH5XbD6hmx5Op2JInt6V-2">
          <mxGeometry width="50" height="50" relative="1" as="geometry">
            <mxPoint x="360" y="450" as="sourcePoint" />
            <mxPoint x="410" y="400" as="targetPoint" />
          </mxGeometry>
        </mxCell>
        <mxCell id="tH5XbD6hmx5Op2JInt6V-12" value="" style="endArrow=classic;html=1;rounded=0;exitX=0.5;exitY=1;exitDx=0;exitDy=0;entryX=0.5;entryY=0;entryDx=0;entryDy=0;" edge="1" parent="1" source="tH5XbD6hmx5Op2JInt6V-1" target="tH5XbD6hmx5Op2JInt6V-13">
          <mxGeometry width="50" height="50" relative="1" as="geometry">
            <mxPoint x="410" y="180" as="sourcePoint" />
            <mxPoint x="260" y="200" as="targetPoint" />
          </mxGeometry>
        </mxCell>
        <mxCell id="tH5XbD6hmx5Op2JInt6V-44" style="edgeStyle=orthogonalEdgeStyle;rounded=0;orthogonalLoop=1;jettySize=auto;html=1;exitX=0.5;exitY=1;exitDx=0;exitDy=0;entryX=0.5;entryY=0;entryDx=0;entryDy=0;" edge="1" parent="1" source="tH5XbD6hmx5Op2JInt6V-13" target="tH5XbD6hmx5Op2JInt6V-47">
          <mxGeometry relative="1" as="geometry">
            <mxPoint x="260" y="410" as="targetPoint" />
          </mxGeometry>
        </mxCell>
        <mxCell id="tH5XbD6hmx5Op2JInt6V-13" value="Announce average lifespan" style="rounded=0;whiteSpace=wrap;html=1;" vertex="1" parent="1">
          <mxGeometry x="210" y="200" width="120" height="60" as="geometry" />
        </mxCell>
        <mxCell id="tH5XbD6hmx5Op2JInt6V-20" value="Ackknowledge" style="rounded=0;whiteSpace=wrap;html=1;" vertex="1" parent="1">
          <mxGeometry x="-300" y="200" width="120" height="60" as="geometry" />
        </mxCell>
        <mxCell id="tH5XbD6hmx5Op2JInt6V-26" value="Return SC tier&amp;nbsp;" style="endArrow=classic;startArrow=classic;html=1;rounded=0;entryX=0;entryY=0.5;entryDx=0;entryDy=0;exitX=1;exitY=0.5;exitDx=0;exitDy=0;" edge="1" parent="1" source="tH5XbD6hmx5Op2JInt6V-20" target="tH5XbD6hmx5Op2JInt6V-13">
          <mxGeometry width="50" height="50" relative="1" as="geometry">
            <mxPoint x="10" y="390" as="sourcePoint" />
            <mxPoint x="60" y="340" as="targetPoint" />
            <mxPoint as="offset" />
          </mxGeometry>
        </mxCell>
        <mxCell id="tH5XbD6hmx5Op2JInt6V-27" value="Updates SC tier locally" style="curved=1;endArrow=classic;html=1;rounded=0;exitX=0;exitY=0.5;exitDx=0;exitDy=0;entryX=0;entryY=0.5;entryDx=0;entryDy=0;" edge="1" parent="1" source="tH5XbD6hmx5Op2JInt6V-13" target="tH5XbD6hmx5Op2JInt6V-1">
          <mxGeometry width="50" height="50" relative="1" as="geometry">
            <mxPoint x="110" y="140" as="sourcePoint" />
            <mxPoint x="160" y="90" as="targetPoint" />
            <Array as="points">
              <mxPoint x="120" y="180" />
              <mxPoint x="220" y="80" />
            </Array>
          </mxGeometry>
        </mxCell>
        <mxCell id="tH5XbD6hmx5Op2JInt6V-33" style="edgeStyle=orthogonalEdgeStyle;rounded=0;orthogonalLoop=1;jettySize=auto;html=1;exitX=0.5;exitY=1;exitDx=0;exitDy=0;entryX=0.5;entryY=0;entryDx=0;entryDy=0;" edge="1" parent="1" source="tH5XbD6hmx5Op2JInt6V-28" target="tH5XbD6hmx5Op2JInt6V-32">
          <mxGeometry relative="1" as="geometry" />
        </mxCell>
        <mxCell id="tH5XbD6hmx5Op2JInt6V-28" value="Increment counter" style="rounded=0;whiteSpace=wrap;html=1;" vertex="1" parent="1">
          <mxGeometry x="604" y="400" width="120" height="60" as="geometry" />
        </mxCell>
        <mxCell id="tH5XbD6hmx5Op2JInt6V-29" value="" style="endArrow=classic;html=1;rounded=0;exitX=0.5;exitY=1;exitDx=0;exitDy=0;entryX=0.5;entryY=0;entryDx=0;entryDy=0;" edge="1" parent="1" source="tH5XbD6hmx5Op2JInt6V-6" target="tH5XbD6hmx5Op2JInt6V-28">
          <mxGeometry width="50" height="50" relative="1" as="geometry">
            <mxPoint x="760" y="540" as="sourcePoint" />
            <mxPoint x="810" y="490" as="targetPoint" />
          </mxGeometry>
        </mxCell>
        <mxCell id="tH5XbD6hmx5Op2JInt6V-34" value="No" style="edgeStyle=orthogonalEdgeStyle;rounded=0;orthogonalLoop=1;jettySize=auto;html=1;exitX=1;exitY=0.5;exitDx=0;exitDy=0;entryX=1;entryY=0.5;entryDx=0;entryDy=0;" edge="1" parent="1" source="tH5XbD6hmx5Op2JInt6V-32" target="tH5XbD6hmx5Op2JInt6V-6">
          <mxGeometry relative="1" as="geometry">
            <Array as="points">
              <mxPoint x="780" y="740" />
              <mxPoint x="780" y="330" />
            </Array>
          </mxGeometry>
        </mxCell>
        <mxCell id="tH5XbD6hmx5Op2JInt6V-36" value="Yes" style="edgeStyle=orthogonalEdgeStyle;rounded=0;orthogonalLoop=1;jettySize=auto;html=1;exitX=0;exitY=0.5;exitDx=0;exitDy=0;entryX=1;entryY=0.5;entryDx=0;entryDy=0;" edge="1" parent="1" source="tH5XbD6hmx5Op2JInt6V-32" target="tH5XbD6hmx5Op2JInt6V-35">
          <mxGeometry relative="1" as="geometry" />
        </mxCell>
        <mxCell id="tH5XbD6hmx5Op2JInt6V-32" value="Is time 00:00" style="rhombus;whiteSpace=wrap;html=1;" vertex="1" parent="1">
          <mxGeometry x="621" y="700" width="86" height="80" as="geometry" />
        </mxCell>
        <mxCell id="tH5XbD6hmx5Op2JInt6V-35" value="Announce average lifespan" style="rounded=0;whiteSpace=wrap;html=1;" vertex="1" parent="1">
          <mxGeometry x="200" y="710" width="120" height="60" as="geometry" />
        </mxCell>
        <mxCell id="tH5XbD6hmx5Op2JInt6V-37" value="Ackknowledge" style="rounded=0;whiteSpace=wrap;html=1;" vertex="1" parent="1">
          <mxGeometry x="-300" y="710" width="120" height="60" as="geometry" />
        </mxCell>
        <mxCell id="tH5XbD6hmx5Op2JInt6V-38" value="Return SC tier&amp;nbsp;" style="endArrow=classic;startArrow=classic;html=1;rounded=0;entryX=0;entryY=0.5;entryDx=0;entryDy=0;exitX=1;exitY=0.5;exitDx=0;exitDy=0;" edge="1" parent="1" source="tH5XbD6hmx5Op2JInt6V-37" target="tH5XbD6hmx5Op2JInt6V-35">
          <mxGeometry width="50" height="50" relative="1" as="geometry">
            <mxPoint x="40" y="535" as="sourcePoint" />
            <mxPoint x="210" y="535" as="targetPoint" />
            <mxPoint as="offset" />
          </mxGeometry>
        </mxCell>
        <mxCell id="tH5XbD6hmx5Op2JInt6V-40" value="Apply along distribution using max and min and weight" style="rounded=0;whiteSpace=wrap;html=1;" vertex="1" parent="1">
          <mxGeometry x="-300" y="410" width="120" height="60" as="geometry" />
        </mxCell>
        <mxCell id="tH5XbD6hmx5Op2JInt6V-41" value="" style="endArrow=classic;startArrow=classic;html=1;rounded=0;entryX=0.5;entryY=1;entryDx=0;entryDy=0;exitX=0.5;exitY=0;exitDx=0;exitDy=0;" edge="1" parent="1" source="tH5XbD6hmx5Op2JInt6V-40" target="tH5XbD6hmx5Op2JInt6V-20">
          <mxGeometry width="50" height="50" relative="1" as="geometry">
            <mxPoint x="-220" y="370" as="sourcePoint" />
            <mxPoint x="-170" y="320" as="targetPoint" />
          </mxGeometry>
        </mxCell>
        <mxCell id="tH5XbD6hmx5Op2JInt6V-42" value="" style="endArrow=classic;startArrow=classic;html=1;rounded=0;entryX=0.5;entryY=0;entryDx=0;entryDy=0;exitX=0.5;exitY=1;exitDx=0;exitDy=0;" edge="1" parent="1" source="tH5XbD6hmx5Op2JInt6V-40" target="tH5XbD6hmx5Op2JInt6V-37">
          <mxGeometry width="50" height="50" relative="1" as="geometry">
            <mxPoint x="-230" y="410" as="sourcePoint" />
            <mxPoint x="-80" y="340" as="targetPoint" />
          </mxGeometry>
        </mxCell>
        <mxCell id="tH5XbD6hmx5Op2JInt6V-45" value="Acknowledge" style="rounded=0;whiteSpace=wrap;html=1;" vertex="1" parent="1">
          <mxGeometry x="-140" y="410" width="120" height="60" as="geometry" />
        </mxCell>
        <mxCell id="tH5XbD6hmx5Op2JInt6V-55" value="Yes" style="edgeStyle=orthogonalEdgeStyle;rounded=0;orthogonalLoop=1;jettySize=auto;html=1;exitX=0;exitY=0.5;exitDx=0;exitDy=0;entryX=1;entryY=0.5;entryDx=0;entryDy=0;" edge="1" parent="1" source="tH5XbD6hmx5Op2JInt6V-47" target="tH5XbD6hmx5Op2JInt6V-45">
          <mxGeometry relative="1" as="geometry" />
        </mxCell>
        <mxCell id="tH5XbD6hmx5Op2JInt6V-57" style="edgeStyle=orthogonalEdgeStyle;rounded=0;orthogonalLoop=1;jettySize=auto;html=1;exitX=1;exitY=0.5;exitDx=0;exitDy=0;entryX=0;entryY=0.5;entryDx=0;entryDy=0;" edge="1" parent="1" source="tH5XbD6hmx5Op2JInt6V-47" target="tH5XbD6hmx5Op2JInt6V-56">
          <mxGeometry relative="1" as="geometry" />
        </mxCell>
        <mxCell id="tH5XbD6hmx5Op2JInt6V-47" value="Request if &lt;br&gt;any CU needs &lt;br&gt;this SC tier." style="rhombus;whiteSpace=wrap;html=1;" vertex="1" parent="1">
          <mxGeometry x="210" y="385" width="120" height="110" as="geometry" />
        </mxCell>
        <mxCell id="tH5XbD6hmx5Op2JInt6V-48" value="Request content from node" style="rounded=0;whiteSpace=wrap;html=1;" vertex="1" parent="1">
          <mxGeometry x="210" y="570" width="120" height="60" as="geometry" />
        </mxCell>
        <mxCell id="tH5XbD6hmx5Op2JInt6V-54" value="Return content" style="edgeStyle=orthogonalEdgeStyle;rounded=0;orthogonalLoop=1;jettySize=auto;html=1;exitX=1;exitY=0.5;exitDx=0;exitDy=0;entryX=0;entryY=0.5;entryDx=0;entryDy=0;" edge="1" parent="1" source="tH5XbD6hmx5Op2JInt6V-53" target="tH5XbD6hmx5Op2JInt6V-48">
          <mxGeometry relative="1" as="geometry" />
        </mxCell>
        <mxCell id="tH5XbD6hmx5Op2JInt6V-53" value="Return content" style="rounded=0;whiteSpace=wrap;html=1;" vertex="1" parent="1">
          <mxGeometry x="-140" y="570" width="120" height="60" as="geometry" />
        </mxCell>
        <mxCell id="tH5XbD6hmx5Op2JInt6V-60" style="edgeStyle=orthogonalEdgeStyle;rounded=0;orthogonalLoop=1;jettySize=auto;html=1;exitX=0.5;exitY=1;exitDx=0;exitDy=0;entryX=0.5;entryY=0;entryDx=0;entryDy=0;" edge="1" parent="1" source="tH5XbD6hmx5Op2JInt6V-56" target="tH5XbD6hmx5Op2JInt6V-48">
          <mxGeometry relative="1" as="geometry">
            <mxPoint x="474" y="570" as="targetPoint" />
          </mxGeometry>
        </mxCell>
        <mxCell id="tH5XbD6hmx5Op2JInt6V-56" value="Create new CU and become master node" style="rounded=0;whiteSpace=wrap;html=1;" vertex="1" parent="1">
          <mxGeometry x="414" y="410" width="120" height="60" as="geometry" />
        </mxCell>
        <mxCell id="tH5XbD6hmx5Op2JInt6V-62" value="" style="edgeStyle=orthogonalEdgeStyle;rounded=0;orthogonalLoop=1;jettySize=auto;html=1;exitX=0.5;exitY=1;exitDx=0;exitDy=0;entryX=0.5;entryY=0;entryDx=0;entryDy=0;" edge="1" parent="1" source="tH5XbD6hmx5Op2JInt6V-45" target="tH5XbD6hmx5Op2JInt6V-48">
          <mxGeometry relative="1" as="geometry">
            <mxPoint x="-80" y="470" as="sourcePoint" />
            <mxPoint x="695" y="530" as="targetPoint" />
          </mxGeometry>
        </mxCell>
      </root>
    </mxGraphModel>
  </diagram>
</mxfile>
